<svg width="41" height="40" viewBox="0 0 41 40" fill="none" xmlns="http://www.w3.org/2000/svg">
<path fill-rule="evenodd" clip-rule="evenodd" d="M16.8715 0.85942C18.9781 -0.286473 21.5219 -0.286474 23.6286 0.85942L35.8414 7.50256C38.1169 8.74033 39.5334 11.1233 39.5334 13.7137V26.2863C39.5334 28.8767 38.1169 31.2597 35.8414 32.4974L23.6286 39.1406C21.5219 40.2865 18.9781 40.2865 16.8715 39.1406L4.65866 32.4974C2.38314 31.2597 0.966629 28.8767 0.966629 26.2863L0.966629 13.7137C0.966629 11.1233 2.38313 8.74033 4.65866 7.50256L16.8715 0.85942Z" fill="#8DC351"/>
<g clip-path="url(#clip0_377_8778)">
<path d="M20.25 36C29.0866 36 36.25 28.8366 36.25 20C36.25 11.1634 29.0866 4 20.25 4C11.4134 4 4.25 11.1634 4.25 20C4.25 28.8366 11.4134 36 20.25 36Z" fill="#8DC351"/>
<path d="M25.48 14.523C24.704 12.551 22.758 12.373 20.492 12.813L19.685 10L17.973 10.491L18.759 13.231C18.309 13.359 17.851 13.501 17.396 13.641L16.606 10.883L14.895 11.373L15.7 14.186C15.332 14.3 14.97 14.412 14.615 14.514L14.612 14.504L12.25 15.181L12.775 17.011C12.775 17.011 14.033 16.623 14.018 16.653C14.712 16.454 15.053 16.792 15.218 17.121L16.138 20.325C16.185 20.312 16.248 20.296 16.322 20.285L16.141 20.337L17.428 24.827C17.46 25.054 17.432 25.439 16.948 25.579C16.975 25.592 15.702 25.935 15.702 25.935L15.949 28.078L18.177 27.438C18.592 27.321 19.002 27.211 19.403 27.098L20.22 29.943L21.93 29.453L21.123 26.638C21.5817 26.5163 22.0391 26.3896 22.495 26.258L23.297 29.061L25.01 28.57L24.196 25.73C27.027 24.739 28.834 23.436 28.309 20.66C27.887 18.426 26.585 17.748 24.838 17.824C25.686 17.034 26.051 15.966 25.48 14.524V14.523ZM24.83 21.293C25.44 23.42 21.73 24.222 20.57 24.556L19.489 20.786C20.649 20.453 24.193 19.076 24.829 21.294L24.83 21.293ZM22.508 16.203C23.062 18.138 19.961 18.783 18.994 19.06L18.014 15.641C18.98 15.364 21.929 14.186 22.508 16.204V16.203Z" fill="white"/>
</g>
<defs>
<clipPath id="clip0_377_8778">
<rect width="32" height="32" fill="white" transform="translate(4.25 4)"/>
</clipPath>
</defs>
</svg>
