<svg width="41" height="40" viewBox="0 0 41 40" fill="none" xmlns="http://www.w3.org/2000/svg">
<path fill-rule="evenodd" clip-rule="evenodd" d="M16.8715 0.85942C18.9781 -0.286473 21.5219 -0.286474 23.6286 0.85942L35.8414 7.50256C38.1169 8.74033 39.5334 11.1233 39.5334 13.7137V26.2863C39.5334 28.8767 38.1169 31.2597 35.8414 32.4974L23.6286 39.1406C21.5219 40.2865 18.9781 40.2865 16.8715 39.1406L4.65866 32.4974C2.38314 31.2597 0.966629 28.8767 0.966629 26.2863L0.966629 13.7137C0.966629 11.1233 2.38313 8.74033 4.65866 7.50256L16.8715 0.85942Z" fill="#627EEA"/>
<g clip-path="url(#clip0_377_8749)">
<path d="M20.25 36C29.0866 36 36.25 28.8366 36.25 20C36.25 11.1634 29.0866 4 20.25 4C11.4134 4 4.25 11.1634 4.25 20C4.25 28.8366 11.4134 36 20.25 36Z" fill="#627EEA"/>
<path d="M20.25 8V16.87L27.747 20.22L20.25 8Z" fill="white" fill-opacity="0.602"/>
<path d="M20.748 8L13.25 20.22L20.748 16.87V8Z" fill="white"/>
<path d="M20.25 26.352V32.379L27.752 22L20.25 26.352Z" fill="white" fill-opacity="0.602"/>
<path d="M20.748 32.379V26.351L13.25 22L20.748 32.379Z" fill="white"/>
<path d="M20.25 24.701L27.747 20.348L20.25 17V24.701Z" fill="white" fill-opacity="0.2"/>
<path d="M13.25 20.348L20.748 24.701V17L13.25 20.348Z" fill="white" fill-opacity="0.602"/>
</g>
<defs>
<clipPath id="clip0_377_8749">
<rect width="32" height="32" fill="white" transform="translate(4.25 4)"/>
</clipPath>
</defs>
</svg>
