<svg width="32" height="32" viewBox="0 0 32 32" fill="none" xmlns="http://www.w3.org/2000/svg">
<path fill-rule="evenodd" clip-rule="evenodd" d="M13.2971 0.687536C14.9824 -0.229179 17.0175 -0.229179 18.7028 0.687536L28.473 6.00205C30.2935 6.99226 31.4267 8.89867 31.4267 10.971V21.029C31.4267 23.1013 30.2935 25.0077 28.473 25.998L18.7028 31.3125C17.0175 32.2292 14.9824 32.2292 13.2971 31.3125L3.52687 25.998C1.70645 25.0077 0.573242 23.1013 0.573242 21.029L0.573242 10.971C0.573242 8.89867 1.70645 6.99226 3.52686 6.00205L13.2971 0.687536Z" fill="#354BFF"/>
<g filter="url(#filter0_d_1502_45644)">
<path fill-rule="evenodd" clip-rule="evenodd" d="M18.8612 21.6668C22.5431 21.6668 25.5278 18.6821 25.5278 15.0002C25.5278 11.3183 22.5431 8.3335 18.8612 8.3335C16.0446 8.3335 13.636 10.0801 12.6594 12.5494C12.1871 12.3891 11.6809 12.3022 11.1544 12.3022C8.56848 12.3022 6.47217 14.3986 6.47217 16.9845C6.47217 19.5704 8.56848 21.6667 11.1544 21.6667H11.1547L11.1544 21.6669H17.9896C18.0908 21.6669 18.1911 21.6587 18.2896 21.6427C18.478 21.6587 18.6686 21.6668 18.8612 21.6668ZM14.63 20.1523C14.6248 20.148 14.6195 20.1436 14.6143 20.1393C14.6041 20.1504 14.5939 20.1615 14.5837 20.1725L14.63 20.1523Z" fill="url(#paint0_linear_1502_45644)"/>
</g>
<path d="M13.536 1.12676C15.0724 0.291079 16.9275 0.291079 18.4639 1.12676L28.2341 6.44127C29.8936 7.34396 30.9267 9.08185 30.9267 10.971V21.029C30.9267 22.9182 29.8936 24.656 28.2341 25.5587L18.4639 30.8732C16.9275 31.7089 15.0724 31.7089 13.536 30.8732L3.76578 25.5587C2.10628 24.656 1.07324 22.9182 1.07324 21.029V10.971C1.07324 9.08185 2.10628 7.34396 3.76578 6.44127L13.536 1.12676Z" stroke="url(#paint1_linear_1502_45644)"/>
<defs>
<filter id="filter0_d_1502_45644" x="2.47217" y="6.3335" width="27.0557" height="21.3333" filterUnits="userSpaceOnUse" color-interpolation-filters="sRGB">
<feFlood flood-opacity="0" result="BackgroundImageFix"/>
<feColorMatrix in="SourceAlpha" type="matrix" values="0 0 0 0 0 0 0 0 0 0 0 0 0 0 0 0 0 0 127 0" result="hardAlpha"/>
<feOffset dy="2"/>
<feGaussianBlur stdDeviation="2"/>
<feColorMatrix type="matrix" values="0 0 0 0 0 0 0 0 0 0 0 0 0 0 0 0 0 0 0.15 0"/>
<feBlend mode="normal" in2="BackgroundImageFix" result="effect1_dropShadow_1502_45644"/>
<feBlend mode="normal" in="SourceGraphic" in2="effect1_dropShadow_1502_45644" result="shape"/>
</filter>
<linearGradient id="paint0_linear_1502_45644" x1="21.6875" y1="9.125" x2="13.625" y2="21.6669" gradientUnits="userSpaceOnUse">
<stop stop-color="white"/>
<stop offset="1" stop-color="#FCFCFD" stop-opacity="0.75"/>
</linearGradient>
<linearGradient id="paint1_linear_1502_45644" x1="16" y1="0" x2="16" y2="32" gradientUnits="userSpaceOnUse">
<stop stop-color="#7EA4FF" stop-opacity="0.27"/>
<stop offset="1" stop-color="#1448C4" stop-opacity="0.42"/>
</linearGradient>
</defs>
</svg>
