<svg width="142" height="32" viewBox="0 0 142 32" fill="none" xmlns="http://www.w3.org/2000/svg">
<path fill-rule="evenodd" clip-rule="evenodd" d="M13.7972 0.687536C15.4825 -0.229179 17.5176 -0.229179 19.2029 0.687536L28.9731 6.00205C30.7935 6.99226 31.9267 8.89867 31.9267 10.971V21.029C31.9267 23.1013 30.7935 25.0077 28.9731 25.998L19.2029 31.3125C17.5176 32.2292 15.4825 32.2292 13.7972 31.3125L4.02693 25.998C2.20651 25.0077 1.0733 23.1013 1.0733 21.029L1.0733 10.971C1.0733 8.89867 2.20651 6.99226 4.02692 6.00205L13.7972 0.687536Z" fill="#354BFF"/>
<g filter="url(#filter0_d_425_9362)">
<path fill-rule="evenodd" clip-rule="evenodd" d="M19.3612 21.6668C23.0431 21.6668 26.0278 18.6821 26.0278 15.0002C26.0278 11.3183 23.0431 8.3335 19.3612 8.3335C16.5446 8.3335 14.136 10.0801 13.1594 12.5494C12.6871 12.3891 12.1809 12.3022 11.6544 12.3022C9.06848 12.3022 6.97217 14.3986 6.97217 16.9845C6.97217 19.5704 9.06848 21.6667 11.6544 21.6667H11.6547L11.6544 21.6669H18.4896C18.5908 21.6669 18.6911 21.6587 18.7896 21.6427C18.978 21.6587 19.1686 21.6668 19.3612 21.6668ZM15.13 20.1523C15.1248 20.148 15.1195 20.1436 15.1143 20.1393C15.1041 20.1504 15.0939 20.1615 15.0837 20.1725L15.13 20.1523Z" fill="url(#paint0_linear_425_9362)"/>
</g>
<path d="M14.0361 1.12676C15.5724 0.291079 17.4276 0.291079 18.9639 1.12676L28.7342 6.44127C30.3937 7.34396 31.4267 9.08185 31.4267 10.971V21.029C31.4267 22.9182 30.3937 24.656 28.7342 25.5587L18.9639 30.8732C17.4276 31.7089 15.5724 31.7089 14.0361 30.8732L4.26584 25.5587C2.60634 24.656 1.5733 22.9182 1.5733 21.029V10.971C1.5733 9.08185 2.60634 7.34396 4.26584 6.44127L14.0361 1.12676Z" stroke="url(#paint1_linear_425_9362)"/>
<path d="M51.66 15.408C52.604 15.584 53.38 16.056 53.988 16.824C54.596 17.592 54.9 18.472 54.9 19.464C54.9 20.36 54.676 21.152 54.228 21.84C53.796 22.512 53.164 23.04 52.332 23.424C51.5 23.808 50.516 24 49.38 24H42.156V7.248H49.068C50.204 7.248 51.18 7.432 51.996 7.8C52.828 8.168 53.452 8.68 53.868 9.336C54.3 9.992 54.516 10.736 54.516 11.568C54.516 12.544 54.252 13.36 53.724 14.016C53.212 14.672 52.524 15.136 51.66 15.408ZM45.516 14.16H48.588C49.388 14.16 50.004 13.984 50.436 13.632C50.868 13.264 51.084 12.744 51.084 12.072C51.084 11.4 50.868 10.88 50.436 10.512C50.004 10.144 49.388 9.96 48.588 9.96H45.516V14.16ZM48.9 21.264C49.716 21.264 50.348 21.072 50.796 20.688C51.26 20.304 51.492 19.76 51.492 19.056C51.492 18.336 51.252 17.776 50.772 17.376C50.292 16.96 49.644 16.752 48.828 16.752H45.516V21.264H48.9ZM58.8019 9.12C58.2099 9.12 57.7139 8.936 57.3139 8.568C56.9299 8.184 56.7379 7.712 56.7379 7.152C56.7379 6.592 56.9299 6.128 57.3139 5.76C57.7139 5.376 58.2099 5.184 58.8019 5.184C59.3939 5.184 59.8819 5.376 60.2659 5.76C60.6659 6.128 60.8659 6.592 60.8659 7.152C60.8659 7.712 60.6659 8.184 60.2659 8.568C59.8819 8.936 59.3939 9.12 58.8019 9.12ZM60.4579 10.704V24H57.0979V10.704H60.4579ZM67.2096 13.464V19.896C67.2096 20.344 67.3136 20.672 67.5216 20.88C67.7456 21.072 68.1136 21.168 68.6256 21.168H70.1856V24H68.0736C65.2416 24 63.8256 22.624 63.8256 19.872V13.464H62.2416V10.704H63.8256V7.416H67.2096V10.704H70.1856V13.464H67.2096ZM71.3062 15.6C71.3062 13.952 71.6742 12.48 72.4102 11.184C73.1622 9.872 74.1782 8.856 75.4582 8.136C76.7542 7.4 78.2022 7.032 79.8023 7.032C81.6743 7.032 83.3143 7.512 84.7223 8.472C86.1303 9.432 87.1143 10.76 87.6742 12.456H83.8103C83.4262 11.656 82.8822 11.056 82.1783 10.656C81.4903 10.256 80.6902 10.056 79.7782 10.056C78.8022 10.056 77.9302 10.288 77.1622 10.752C76.4102 11.2 75.8182 11.84 75.3862 12.672C74.9702 13.504 74.7622 14.48 74.7622 15.6C74.7622 16.704 74.9702 17.68 75.3862 18.528C75.8182 19.36 76.4102 20.008 77.1622 20.472C77.9302 20.92 78.8022 21.144 79.7782 21.144C80.6902 21.144 81.4903 20.944 82.1783 20.544C82.8822 20.128 83.4262 19.52 83.8103 18.72H87.6742C87.1143 20.432 86.1303 21.768 84.7223 22.728C83.3303 23.672 81.6903 24.144 79.8023 24.144C78.2022 24.144 76.7542 23.784 75.4582 23.064C74.1782 22.328 73.1622 21.312 72.4102 20.016C71.6742 18.72 71.3062 17.248 71.3062 15.6ZM93.4241 6.24V24H90.0641V6.24H93.4241ZM102.168 24.216C100.888 24.216 99.7358 23.936 98.7118 23.376C97.6878 22.8 96.8798 21.992 96.2878 20.952C95.7118 19.912 95.4238 18.712 95.4238 17.352C95.4238 15.992 95.7198 14.792 96.3118 13.752C96.9198 12.712 97.7438 11.912 98.7838 11.352C99.8238 10.776 100.984 10.488 102.264 10.488C103.544 10.488 104.704 10.776 105.744 11.352C106.784 11.912 107.6 12.712 108.192 13.752C108.8 14.792 109.104 15.992 109.104 17.352C109.104 18.712 108.792 19.912 108.168 20.952C107.56 21.992 106.728 22.8 105.672 23.376C104.632 23.936 103.464 24.216 102.168 24.216ZM102.168 21.288C102.776 21.288 103.344 21.144 103.872 20.856C104.416 20.552 104.848 20.104 105.168 19.512C105.488 18.92 105.648 18.2 105.648 17.352C105.648 16.088 105.312 15.12 104.64 14.448C103.984 13.76 103.176 13.416 102.216 13.416C101.256 13.416 100.448 13.76 99.7918 14.448C99.1518 15.12 98.8318 16.088 98.8318 17.352C98.8318 18.616 99.1438 19.592 99.7678 20.28C100.408 20.952 101.208 21.288 102.168 21.288ZM123.641 10.704V24H120.257V22.32C119.825 22.896 119.257 23.352 118.553 23.688C117.865 24.008 117.113 24.168 116.297 24.168C115.257 24.168 114.337 23.952 113.537 23.52C112.737 23.072 112.105 22.424 111.641 21.576C111.193 20.712 110.969 19.688 110.969 18.504V10.704H114.329V18.024C114.329 19.08 114.593 19.896 115.121 20.472C115.649 21.032 116.369 21.312 117.281 21.312C118.209 21.312 118.937 21.032 119.465 20.472C119.993 19.896 120.257 19.08 120.257 18.024V10.704H123.641ZM125.612 17.304C125.612 15.96 125.876 14.768 126.404 13.728C126.948 12.688 127.684 11.888 128.612 11.328C129.54 10.768 130.572 10.488 131.708 10.488C132.572 10.488 133.396 10.68 134.18 11.064C134.964 11.432 135.588 11.928 136.052 12.552V6.24H139.46V24H136.052V22.032C135.636 22.688 135.052 23.216 134.3 23.616C133.548 24.016 132.676 24.216 131.684 24.216C130.564 24.216 129.54 23.928 128.612 23.352C127.684 22.776 126.948 21.968 126.404 20.928C125.876 19.872 125.612 18.664 125.612 17.304ZM136.076 17.352C136.076 16.536 135.916 15.84 135.596 15.264C135.276 14.672 134.844 14.224 134.3 13.92C133.756 13.6 133.172 13.44 132.548 13.44C131.924 13.44 131.348 13.592 130.82 13.896C130.292 14.2 129.86 14.648 129.524 15.24C129.204 15.816 129.044 16.504 129.044 17.304C129.044 18.104 129.204 18.808 129.524 19.416C129.86 20.008 130.292 20.464 130.82 20.784C131.364 21.104 131.94 21.264 132.548 21.264C133.172 21.264 133.756 21.112 134.3 20.808C134.844 20.488 135.276 20.04 135.596 19.464C135.916 18.872 136.076 18.168 136.076 17.352Z" fill="#F4F5F6"/>
<defs>
<filter id="filter0_d_425_9362" x="2.97217" y="6.3335" width="27.0557" height="21.3334" filterUnits="userSpaceOnUse" color-interpolation-filters="sRGB">
<feFlood flood-opacity="0" result="BackgroundImageFix"/>
<feColorMatrix in="SourceAlpha" type="matrix" values="0 0 0 0 0 0 0 0 0 0 0 0 0 0 0 0 0 0 127 0" result="hardAlpha"/>
<feOffset dy="2"/>
<feGaussianBlur stdDeviation="2"/>
<feColorMatrix type="matrix" values="0 0 0 0 0 0 0 0 0 0 0 0 0 0 0 0 0 0 0.15 0"/>
<feBlend mode="normal" in2="BackgroundImageFix" result="effect1_dropShadow_425_9362"/>
<feBlend mode="normal" in="SourceGraphic" in2="effect1_dropShadow_425_9362" result="shape"/>
</filter>
<linearGradient id="paint0_linear_425_9362" x1="22.1875" y1="9.125" x2="14.125" y2="21.6669" gradientUnits="userSpaceOnUse">
<stop stop-color="white"/>
<stop offset="1" stop-color="#FCFCFD" stop-opacity="0.75"/>
</linearGradient>
<linearGradient id="paint1_linear_425_9362" x1="16.5" y1="0" x2="16.5" y2="32" gradientUnits="userSpaceOnUse">
<stop stop-color="#7EA4FF" stop-opacity="0.27"/>
<stop offset="1" stop-color="#1448C4" stop-opacity="0.42"/>
</linearGradient>
</defs>
</svg>
