<svg width="139" height="45" viewBox="0 0 139 45" fill="none" xmlns="http://www.w3.org/2000/svg">
<path d="M16.6899 33.7142L6.88454 43.4213C6.51006 43.792 6.00441 44 5.47747 44H135.5C136.605 44 137.5 43.1046 137.5 42V39.2075C137.5 38.103 136.605 37.2075 135.5 37.2075H135.289C134.27 37.2075 133.414 36.4422 133.301 35.43L129.792 4.07267C129.567 2.06464 126.846 1.61851 125.991 3.44965L120.699 14.7949C120.098 16.0847 118.38 16.3511 117.416 15.3042L114.413 12.044C113.488 11.039 111.85 11.2371 111.19 12.4337L106.435 21.0663C105.775 22.2629 104.137 22.461 103.212 21.456L99.4656 17.388C98.748 16.6087 97.5472 16.5241 96.7275 17.1951L87.2917 24.9189C87.1193 25.06 86.9245 25.1714 86.7153 25.2483L83.3125 26.5L77.7836 28.3922C77.5751 28.4636 77.3563 28.5 77.136 28.5H64.1149C63.8131 28.5 63.5151 28.4317 63.2434 28.3001L57.8005 25.6649C57.1249 25.3378 56.3232 25.4165 55.7241 25.8686L49.8667 30.2893C49.1718 30.8137 48.2175 30.8284 47.5067 30.3255L43.6366 27.5872C42.8592 27.0372 41.8017 27.1116 41.109 27.7651L36.9814 31.659C36.3395 32.2647 35.3764 32.3779 34.6114 31.9377L23.4807 25.532C22.5003 24.9678 21.2475 25.3282 20.7169 26.3271L17.0491 33.2312C16.9544 33.4094 16.8333 33.5722 16.6899 33.7142Z" fill="url(#paint0_linear_377_9080)"/>
<path d="M1.5 44H5.47747C6.00441 44 6.51006 43.792 6.88454 43.4213L16.6512 33.7525C16.8199 33.5855 16.9575 33.3898 17.0576 33.1746L20.5429 25.6805C21.0508 24.5885 22.4017 24.1897 23.4212 24.8309L34.5892 31.8548C35.3609 32.3402 36.3632 32.2422 37.0264 31.6166L41.109 27.7651C41.8017 27.1116 42.8592 27.0372 43.6366 27.5872L47.5067 30.3255C48.2175 30.8284 49.1718 30.8137 49.8667 30.2893L55.7241 25.8686C56.3232 25.4165 57.1249 25.3378 57.8005 25.6649L63.2434 28.3001C63.5151 28.4317 63.8131 28.5 64.1149 28.5H70.5625H77.1268C77.3531 28.5 77.5778 28.4616 77.7912 28.3864L86.6747 25.2576C86.9103 25.1747 87.1283 25.0483 87.3174 24.8851L96.7047 16.7802C97.5286 16.0689 98.7699 16.147 99.4982 16.9559L103.54 21.446C104.483 22.4925 106.182 22.2637 106.814 21.0053L111.139 12.3927C111.831 11.0137 113.758 10.905 114.601 12.1974L117.01 15.89C117.892 17.2427 119.931 17.0457 120.538 15.5491L125.566 3.15535C126.342 1.24276 129.154 1.61603 129.405 3.66479L133.285 35.4499C133.408 36.4533 134.26 37.2075 135.271 37.2075H137.5" stroke="#58BD7D" stroke-width="2" stroke-linecap="round" stroke-linejoin="round"/>
<defs>
<linearGradient id="paint0_linear_377_9080" x1="70.3" y1="-89.0189" x2="69.317" y2="43.9986" gradientUnits="userSpaceOnUse">
<stop stop-color="#45B36B"/>
<stop offset="1" stop-color="#45B36B" stop-opacity="0"/>
</linearGradient>
</defs>
</svg>
