<svg width="139" height="42" viewBox="0 0 139 42" fill="none" xmlns="http://www.w3.org/2000/svg">
<path d="M1.5 41H5.40446C5.97423 41 6.51695 40.757 6.89641 40.332L14.6641 31.6312C14.742 31.5439 14.8122 31.4499 14.8737 31.3503L20.4404 22.3381C21.0242 21.3929 22.2664 21.1046 23.2068 21.6961L34.5892 28.8548C35.3609 29.3402 36.3632 29.2422 37.0264 28.6166L41.109 24.7651C41.8017 24.1116 42.8592 24.0372 43.6366 24.5872L47.8748 27.5859C48.3937 27.9531 49.0562 28.0517 49.6595 27.8516L56.75 25.5L63.3986 22.6119C63.5695 22.5377 63.7292 22.4399 63.8731 22.3214L70.8979 16.5363C71.6305 15.933 72.6863 15.9276 73.425 16.5236L79.1125 21.1118C79.426 21.3647 79.8086 21.517 80.2101 21.5489L87.5625 22.1321H96.5402C97.1469 22.1321 97.7209 21.8566 98.1005 21.3833L105.52 12.1308C105.59 12.0438 105.667 11.9627 105.75 11.8885L116.802 2.04605C117.883 1.08368 119.597 1.55198 120.037 2.93023L123.861 14.8806C124.082 15.5716 124.66 16.0887 125.371 16.2319L130.707 17.3059C131.583 17.4822 132.236 18.2182 132.306 19.109L133.354 32.3652C133.437 33.4054 134.305 34.2075 135.348 34.2075H137.5" stroke="#58BD7D" stroke-width="2" stroke-linecap="round" stroke-linejoin="round"/>
<path d="M5.40446 41H1.5L135.493 41.4926C136.6 41.4967 137.5 40.6001 137.5 39.4926V36.2075C137.5 35.103 136.605 34.2075 135.5 34.2075H135.348C134.305 34.2075 133.437 33.4054 133.354 32.3652L132.306 19.109C132.236 18.2182 131.583 17.4822 130.707 17.3059L125.371 16.2319C124.66 16.0887 124.082 15.5716 123.861 14.8806L120.037 2.93023C119.597 1.55198 117.883 1.08368 116.802 2.04605L105.75 11.8885C105.667 11.9627 105.59 12.0438 105.52 12.1308L98.1005 21.3833C97.7209 21.8566 97.1469 22.1321 96.5402 22.1321H87.5625L80.2101 21.5489C79.8086 21.517 79.426 21.3647 79.1125 21.1118L73.425 16.5236C72.6863 15.9276 71.6305 15.933 70.8979 16.5363L63.8731 22.3214C63.7292 22.4399 63.5695 22.5377 63.3986 22.6119L56.75 25.5L49.6595 27.8516C49.0562 28.0517 48.3937 27.9531 47.8748 27.5859L43.6366 24.5872C42.8592 24.0372 41.8017 24.1116 41.109 24.7651L37.0264 28.6166C36.3632 29.2422 35.3609 29.3402 34.5892 28.8548L23.2068 21.6961C22.2664 21.1047 21.0242 21.3929 20.4404 22.3381L14.8737 31.3503C14.8122 31.4499 14.742 31.5439 14.6641 31.6312L6.89641 40.332C6.51695 40.757 5.97423 41 5.40446 41Z" fill="url(#paint0_linear_377_9032)"/>
<defs>
<linearGradient id="paint0_linear_377_9032" x1="70.3" y1="-75.0377" x2="69.5519" y2="41.0003" gradientUnits="userSpaceOnUse">
<stop stop-color="#45B36B"/>
<stop offset="1" stop-color="#45B36B" stop-opacity="0"/>
</linearGradient>
</defs>
</svg>
