<svg width="139" height="41" viewBox="0 0 139 41" fill="none" xmlns="http://www.w3.org/2000/svg">
<path d="M137.5 40H133.596C133.026 40 132.483 39.757 132.104 39.332L124.571 30.8951C124.34 30.6362 124.046 30.4418 123.717 30.3313L117.14 28.1205C116.903 28.0409 116.653 28.0064 116.403 28.0188L104.636 28.603C103.73 28.648 102.908 28.0783 102.632 27.2148L98.8261 15.3179C98.2541 13.5298 95.7561 13.4439 95.0626 15.1885L90.997 25.4162C90.6057 26.4008 89.5145 26.9093 88.5089 26.5758L82.25 24.5L75.6014 21.6119C75.4305 21.5377 75.2708 21.4399 75.1269 21.3214L68.1021 15.5363C67.3695 14.933 66.3137 14.9276 65.575 15.5236L59.8875 20.1118C59.574 20.3647 59.1914 20.517 58.7899 20.5489L51.5507 21.1231C51.4766 21.129 51.4053 21.1544 51.3442 21.1967V21.1967C51.1206 21.3515 50.8112 21.2572 50.7121 21.004L47.6275 13.1241C47.3569 12.4328 46.7256 11.9482 45.9878 11.8656L25.5013 9.57017C25.0936 9.5245 24.6818 9.60527 24.3216 9.80153L15.047 14.8552C14.8708 14.9512 14.6813 15.0201 14.4846 15.0597L8.29269 16.3059C7.4167 16.4822 6.76393 17.2182 6.69352 18.109L5.64563 31.3652C5.56341 32.4054 4.6953 33.2075 3.65185 33.2075H1.5" stroke="#DCF235" stroke-width="2" stroke-linecap="round" stroke-linejoin="round"/>
<path d="M133.596 40H137.5L3.50735 40.4926C2.39992 40.4967 1.5 39.6001 1.5 38.4926V35.2075C1.5 34.103 2.39543 33.2075 3.5 33.2075H3.65186C4.6953 33.2075 5.5634 32.4054 5.64563 31.3652L6.69351 18.109C6.76393 17.2182 7.4167 16.4822 8.29269 16.3059L14.4846 15.0597C14.6813 15.0201 14.8708 14.9512 15.047 14.8552L24.3216 9.80153C24.6818 9.60527 25.0936 9.5245 25.5013 9.57017L46.0669 11.8744C46.7625 11.9524 47.3667 12.3883 47.6601 13.0238L49.3125 16.6038L50.8492 19.8785C51.2031 20.6326 51.9875 21.0885 52.8179 21.0226L58.7899 20.5489C59.1914 20.517 59.574 20.3647 59.8875 20.1118L65.575 15.5236C66.3137 14.9276 67.3695 14.933 68.1021 15.5363L75.1269 21.3214C75.2708 21.4399 75.4305 21.5377 75.6014 21.6119L82.25 24.5L88.4913 26.57C89.5041 26.9058 90.6021 26.3876 90.9866 25.3923L95.057 14.854C95.7397 13.0866 98.2686 13.1708 98.8321 14.9798L102.61 27.1054C102.894 28.0194 103.787 28.6035 104.738 28.4985L116.241 27.2294C116.595 27.1904 116.953 27.2465 117.277 27.392L123.829 30.3254C124.086 30.4405 124.316 30.6086 124.503 30.8188L132.104 39.332C132.483 39.757 133.026 40 133.596 40Z" fill="url(#paint0_linear_377_9056)"/>
<defs>
<linearGradient id="paint0_linear_377_9056" x1="68.7" y1="-47.2359" x2="69.1277" y2="40.5018" gradientUnits="userSpaceOnUse">
<stop stop-color="#EF466F"/>
<stop offset="1" stop-color="#EF466F" stop-opacity="0"/>
</linearGradient>
</defs>
</svg>
