<svg width="139" height="42" viewBox="0 0 139 42" fill="none" xmlns="http://www.w3.org/2000/svg">
<path d="M14.5787 21.8297L6.82128 39.7929C6.50488 40.5256 5.78322 41 4.98518 41H135.5C136.605 41 137.5 40.1046 137.5 39V36.2075C137.5 35.103 136.605 34.2075 135.5 34.2075H134.813C134.016 34.2075 133.295 33.7344 132.978 33.0032L126.712 18.5532C126.453 17.9577 125.922 17.5246 125.287 17.3914L119.912 16.2645C119.392 16.1556 118.937 15.8444 118.647 15.3997L114.601 9.19742C113.758 7.90503 111.831 8.0137 111.139 9.39268L105.944 19.7382C105.664 20.2956 105.14 20.6905 104.528 20.8061L98.1374 22.0118C97.7231 22.09 97.2947 22.0352 96.9133 21.8554L85.3449 16.3985C84.9278 16.2018 84.5916 15.867 84.393 15.4507L78.3573 2.79736C77.8832 1.80345 76.6949 1.37976 75.699 1.84955L70.2201 4.43391C69.7577 4.65204 69.3964 5.03898 69.2104 5.51523L64.2082 18.3239C64.0112 18.8284 63.618 19.2314 63.1186 19.4408L56.9313 22.0351C56.7777 22.0995 56.6328 22.1828 56.4998 22.2832L49.8667 27.2893C49.1718 27.8137 48.2175 27.8284 47.5067 27.3255L43.6366 24.5872C42.8592 24.0372 41.8017 24.1116 41.109 24.7651L37.0264 28.6166C36.3632 29.2422 35.3609 29.3402 34.5892 28.8548L21.9881 20.9296C21.6692 20.7291 21.3001 20.6226 20.9234 20.6226H16.4148C15.6168 20.6226 14.8951 21.0971 14.5787 21.8297Z" fill="url(#paint0_linear_377_9002)"/>
<path d="M1.5 41H4.98518C5.78322 41 6.50488 40.5256 6.82128 39.7929L14.5787 21.8297C14.8951 21.0971 15.6168 20.6226 16.4148 20.6226H20.9234C21.3001 20.6226 21.6692 20.7291 21.9881 20.9296L34.5892 28.8548C35.3609 29.3402 36.3632 29.2422 37.0264 28.6166L41.109 24.7651C41.8017 24.1116 42.8592 24.0372 43.6366 24.5872L47.5067 27.3255C48.2175 27.8284 49.1718 27.8137 49.8667 27.2893L56.4998 22.2832C56.6328 22.1828 56.7777 22.0995 56.9313 22.0351L63.1186 19.4408C63.618 19.2314 64.0112 18.8284 64.2082 18.3239L69.2104 5.51523C69.3964 5.03898 69.7577 4.65204 70.2201 4.43391L75.699 1.84955C76.6949 1.37976 77.8832 1.80345 78.3573 2.79736L84.393 15.4507C84.5915 15.867 84.9278 16.2018 85.3449 16.3985L96.9133 21.8554C97.2947 22.0352 97.7231 22.09 98.1374 22.0118L104.528 20.8061C105.14 20.6905 105.664 20.2956 105.944 19.7382L111.139 9.39268C111.831 8.0137 113.758 7.90503 114.601 9.19742L118.647 15.3997C118.937 15.8445 119.392 16.1556 119.912 16.2645L125.287 17.3914C125.922 17.5246 126.453 17.9577 126.712 18.5532L132.978 33.0032C133.295 33.7344 134.016 34.2075 134.813 34.2075H137.5" stroke="#58BD7D" stroke-width="2" stroke-linecap="round" stroke-linejoin="round"/>
<defs>
<linearGradient id="paint0_linear_377_9002" x1="70.3" y1="-72.2076" x2="69.588" y2="41.0006" gradientUnits="userSpaceOnUse">
<stop stop-color="#45B36B"/>
<stop offset="1" stop-color="#45B36B" stop-opacity="0"/>
</linearGradient>
</defs>
</svg>
