<svg width="139" height="42" viewBox="0 0 139 42" fill="none" xmlns="http://www.w3.org/2000/svg">
<path d="M124.421 21.8297L132.179 39.7929C132.495 40.5256 133.217 41 134.015 41H3.5C2.39543 41 1.5 40.1046 1.5 39V36.2075C1.5 35.103 2.39543 34.2075 3.5 34.2075H4.18733C4.98428 34.2075 5.70517 33.7344 6.02223 33.0032L12.2883 18.5532C12.5465 17.9577 13.0776 17.5246 13.7128 17.3914L19.0883 16.2645C19.608 16.1556 20.063 15.8444 20.3531 15.3997L24.3989 9.19742C25.2419 7.90503 27.169 8.0137 27.8614 9.39268L33.0559 19.7382C33.3358 20.2956 33.8596 20.6905 34.4725 20.8061L40.8626 22.0118C41.2769 22.09 41.7053 22.0352 42.0867 21.8554L53.6551 16.3985C54.0722 16.2018 54.4084 15.867 54.607 15.4507L60.6427 2.79736C61.1168 1.80345 62.3051 1.37976 63.301 1.84955L68.7799 4.43391C69.2423 4.65204 69.6036 5.03898 69.7896 5.51523L74.7918 18.3239C74.9888 18.8284 75.382 19.2314 75.8814 19.4408L82.0687 22.0351C82.2223 22.0995 82.3672 22.1828 82.5002 22.2832L89.1333 27.2893C89.8282 27.8137 90.7825 27.8284 91.4933 27.3255L95.3634 24.5872C96.1408 24.0372 97.1983 24.1116 97.891 24.7651L101.974 28.6166C102.637 29.2422 103.639 29.3402 104.411 28.8548L117.012 20.9296C117.331 20.7291 117.7 20.6226 118.077 20.6226H122.585C123.383 20.6226 124.105 21.0971 124.421 21.8297Z" fill="url(#paint0_linear_377_9104)"/>
<path d="M137.5 41H134.015C133.217 41 132.495 40.5256 132.179 39.7929L124.421 21.8297C124.105 21.0971 123.383 20.6226 122.585 20.6226H118.077C117.7 20.6226 117.331 20.7291 117.012 20.9296L104.411 28.8548C103.639 29.3402 102.637 29.2422 101.974 28.6166L97.891 24.7651C97.1983 24.1116 96.1408 24.0372 95.3634 24.5872L91.4933 27.3255C90.7825 27.8284 89.8282 27.8137 89.1333 27.2893L82.5002 22.2832C82.3672 22.1828 82.2223 22.0995 82.0687 22.0351L75.8814 19.4408C75.382 19.2314 74.9888 18.8284 74.7918 18.3239L69.7896 5.51523C69.6036 5.03898 69.2423 4.65204 68.7799 4.43391L63.301 1.84955C62.3051 1.37976 61.1168 1.80345 60.6427 2.79736L54.607 15.4507C54.4085 15.867 54.0722 16.2018 53.6551 16.3985L42.0867 21.8554C41.7053 22.0352 41.2769 22.09 40.8626 22.0118L34.4725 20.8061C33.8596 20.6905 33.3358 20.2956 33.0559 19.7382L27.8614 9.39268C27.169 8.0137 25.2419 7.90503 24.3989 9.19742L20.3531 15.3997C20.063 15.8445 19.608 16.1556 19.0883 16.2645L13.7128 17.3914C13.0776 17.5246 12.5465 17.9577 12.2883 18.5532L6.02223 33.0032C5.70517 33.7344 4.98428 34.2075 4.18733 34.2075H1.5" stroke="#DCF235" stroke-width="2" stroke-linecap="round" stroke-linejoin="round"/>
<defs>
<linearGradient id="paint0_linear_377_9104" x1="68.7" y1="-72.2076" x2="69.412" y2="41.0006" gradientUnits="userSpaceOnUse">
<stop stop-color="#EF466F"/>
<stop offset="1" stop-color="#EF466F" stop-opacity="0"/>
</linearGradient>
</defs>
</svg>
